<?xml version="1.0" encoding="utf-8"?>
<!-- Generator: Adobe Illustrator 21.0.0, SVG Export Plug-In . SVG Version: 6.00 Build 0)  -->
<svg version="1.1" id="图层_1" xmlns="http://www.w3.org/2000/svg" xmlns:xlink="http://www.w3.org/1999/xlink" x="0px" y="0px"
	 viewBox="0 0 64 64" style="enable-background:new 0 0 64 64;" xml:space="preserve">
<style type="text/css">
	.st0{fill:none;stroke:#FFFFFF;stroke-width:2.5;stroke-miterlimit:10;}
	.st1{fill:#FFFFFF;}
</style>
<path class="st0" d="M46.8,8.3l-1.6-2.5c-1.4-2.2-3.8-3.5-6.4-3.5H22.5c-2.2,0-4.3,1.2-5.5,3.1l-1.7,2.9c-1.2,2-3.4,3.2-5.7,3.2
	H-3.6c-3,0-5.4,2.4-5.4,5.4v39.4c0,3,2.4,5.4,5.4,5.4h69.2c3,0,5.4-2.4,5.4-5.4V16.9c0-3-2.4-5.4-5.4-5.4H52.4
	C50.2,11.4,48,10.3,46.8,8.3z"/>
<path class="st1" d="M5.8,4.9H1.9c-1.1,0-2,0.9-2,2v1.2h7.8V6.9C7.8,5.8,6.9,4.9,5.8,4.9z"/>
<g>
	<path class="st1" d="M31.3,51.9c-4,0-7.4-1.4-10.2-3.8l0,0l-3.7,3.7l0,0v-9.9l0,0h9.9l0,0L24,45.3l0,0c2,1.6,4.6,2.6,7.4,2.6
		c6.5,0,11.9-5.3,12-11.8c0-1.2,1-2.3,2.3-2.2c1.1,0.1,1.7,0.9,1.7,2C47.3,44.7,40.1,51.9,31.3,51.9z"/>
	<path class="st1" d="M41.7,29.9h-6.4l3.4-3.4c-2-1.6-4.6-2.6-7.4-2.6c-6.6,0-12,5.4-12,12c0,1.2-0.8,2-2,2s-2-0.8-2-2
		c0-8.8,7.2-16,16-16c4,0,7.4,1.4,10.2,3.8l3.8-3.8v10C45.3,29.9,41.7,29.9,41.7,29.9z"/>
</g>
</svg>
