<?xml version="1.0" standalone="no"?><!DOCTYPE svg PUBLIC "-//W3C//DTD SVG 1.1//EN" "http://www.w3.org/Graphics/SVG/1.1/DTD/svg11.dtd"><svg t="1541423106252" class="icon" style="" viewBox="0 0 1024 1024" version="1.1" xmlns="http://www.w3.org/2000/svg" p-id="3236" xmlns:xlink="http://www.w3.org/1999/xlink" width="200" height="200"><defs><style type="text/css"></style></defs><path d="M711.8 540.9c-13.7 0-24.8 11.2-24.8 24.9 0 92.3-77.8 170.2-169.9 170.2-43.2 0-84.5-16.7-116.3-47.1l36.5-36.5-120-10.9 10.9 120.2 36.6-36.7c40.9 39.2 94.9 60.7 152.3 60.7 58.9 0 114-22.6 155.3-63.6 41.5-41.3 64.3-96.8 64.3-156.4-0.1-13.7-11.2-24.8-24.9-24.8zM711.8 540.9zM347.1 565.9c0-92.3 77.8-170.2 169.9-170.2 43.2 0 84.5 16.7 116.3 47l-36.5 36.6 120 10.9L706 369.9l-36.6 36.7c-40.9-39.2-94.9-60.7-152.3-60.7-58.9 0-114 22.6-155.3 63.6-41.5 41.3-64.3 96.8-64.3 156.4 0 13.7 11.1 24.9 24.8 24.9 13.7-0.1 24.8-11.2 24.8-24.9z" fill="#ffffff" p-id="3237"></path><path d="M873 237.9H700.2c-5.9-8.1-11.6-16.9-17.1-25.5-23.4-36.4-49.9-77.8-107.1-77.8H447.8c-57 0-83.5 41.3-106.9 77.7-5.5 8.6-11.2 17.5-17.2 25.6H150.9c-45.7 0-82.9 37.2-82.9 83v485.4c0 45.8 37.2 83 82.9 83H873c45.7 0 82.9-37.2 82.9-83V320.9c0-45.7-37.2-83-82.9-83z m27.9 568.5c0 15.4-12.5 27.9-27.8 27.9H150.9c-15.3 0-27.8-12.5-27.8-27.9V320.9c0-15.4 12.5-27.9 27.8-27.9h179.8c12.6 0 24.4-5.7 32.2-15.6 8.8-11.2 16.3-22.8 23.5-34l0.8-1.2c24.4-38 36-52.4 60.6-52.4H576c24.8 0 35.8 13.6 60.7 52.4l0.1 0.2c7.5 11.6 15.2 23.5 24.2 35.1 7.8 10 19.5 15.7 32.2 15.7H873c15.3 0 27.8 12.5 27.8 27.9v485.3z" fill="#ffffff" p-id="3238"></path></svg>